<?xml version="1.0" ?><svg id="Layer_2" style="enable-background:new 0 0 32 32;" version="1.1" viewBox="0 0 32 32" xml:space="preserve" xmlns="http://www.w3.org/2000/svg" xmlns:xlink="http://www.w3.org/1999/xlink"><path d="M28.17969,16.98303v-0.23206c0-3.25098-1.26758-6.30859-3.56934-8.61035S19.25098,4.57129,16,4.57129  c-6.71582,0-12.17969,5.46387-12.17969,12.17969v0.23206C1.87097,17.81036,0.5,19.74377,0.5,21.99121  c0,2.99805,2.43945,5.4375,5.4375,5.4375h2.70508c0.82813,0,1.5-0.67188,1.5-1.5v-7.875c0-0.82813-0.67188-1.5-1.5-1.5H6.83032  C6.93671,11.58374,11.00507,7.57129,16,7.57129c2.44922,0,4.75391,0.95508,6.48926,2.69043  c1.68835,1.68835,2.63055,3.91705,2.68079,6.29199h-1.81262c-0.82813,0-1.5,0.67188-1.5,1.5v7.875c0,0.82813,0.67188,1.5,1.5,1.5  h2.70508c2.99805,0,5.4375-2.43945,5.4375-5.4375C31.5,19.74377,30.12903,17.8103,28.17969,16.98303z M7.14258,24.42871H5.9375  c-1.34375,0-2.4375-1.09375-2.4375-2.4375s1.09375-2.4375,2.4375-2.4375h1.20508V24.42871z M26.0625,24.42871h-1.20508v-4.875  h1.20508c1.34375,0,2.4375,1.09375,2.4375,2.4375S27.40625,24.42871,26.0625,24.42871z"/></svg>