<?xml version="1.0" ?><svg id="Layer_2" style="enable-background:new 0 0 32 32;" version="1.1" viewBox="0 0 32 32" xml:space="preserve" xmlns="http://www.w3.org/2000/svg" xmlns:xlink="http://www.w3.org/1999/xlink"><g><path d="M28.17999,16.97998V16.75c0-3.25-1.27002-6.31-3.57001-8.60999C22.31,5.83997,19.25,4.57001,16,4.57001   c-6.71997,0-12.17999,5.46997-12.17999,12.17999v0.22998C1.87,17.81,0.5,19.73999,0.5,21.98999c0,3,2.44,5.44,5.44,5.44h2.70001   c0.82996,0,1.5-0.66998,1.5-1.5v-7.88c0-0.82001-0.67004-1.5-1.5-1.5h-1.81C6.94,11.57996,11.01001,7.57001,16,7.57001   c2.45001,0,4.75,0.95996,6.48999,2.69c1.69,1.69,2.63,3.91998,2.67999,6.28998h-1.81c-0.82996,0-1.5,0.67999-1.5,1.5v7.88   c0,0.83002,0.67004,1.5,1.5,1.5H26.06c3,0,5.44-2.44,5.44-5.44C31.5,19.73999,30.13,17.81,28.17999,16.97998z"/></g></svg>