<?xml version="1.0" ?><!DOCTYPE svg  PUBLIC '-//W3C//DTD SVG 1.1//EN'  'http://www.w3.org/Graphics/SVG/1.1/DTD/svg11.dtd'><svg height="100%" style="fill-rule:evenodd;clip-rule:evenodd;stroke-linejoin:round;stroke-miterlimit:2;" version="1.1" viewBox="0 0 32 32" width="100%" xml:space="preserve" xmlns="http://www.w3.org/2000/svg" xmlns:serif="http://www.serif.com/" xmlns:xlink="http://www.w3.org/1999/xlink"><path d="M24,16l0,11c0,0.552 0.448,1 1,1c-0,0 1,0 2,0c0.796,0 1.559,-0.316 2.121,-0.879c0.563,-0.562 0.879,-1.325 0.879,-2.121c0,-1.743 0,-4.257 -0,-6c0,-0.796 -0.316,-1.559 -0.879,-2.121c-0.562,-0.563 -1.325,-0.879 -2.121,-0.879l-3,0Zm-16,0l-3.42,0c-1.458,0.204 -2.58,1.456 -2.58,2.971c0,1.75 0,4.279 0,6.029c0,1.657 1.343,3 3,3l2,0c0.552,0 1,-0.448 1,-1l-0,-11Zm-2,-2l2,0l-0,-0.002c0,-2.121 0.843,-4.156 2.343,-5.655c1.499,-1.5 3.534,-2.343 5.655,-2.343l0.004,0c2.121,-0 4.156,0.843 5.655,2.343c1.5,1.499 2.343,3.534 2.343,5.655l0,0.002l2,-0l-0,-0.002c-0,-2.652 -1.053,-5.195 -2.928,-7.07c-1.875,-1.875 -4.418,-2.928 -7.07,-2.928c-0.001,0 -0.003,0 -0.004,0c-2.652,-0 -5.195,1.053 -7.07,2.928c-1.875,1.875 -2.928,4.418 -2.928,7.07l-0,0.002Z"/></svg>