<?xml version="1.0" encoding="UTF-8" standalone="no"?>
<svg
   height="100%"
   style="fill-rule:evenodd;clip-rule:evenodd;stroke-linejoin:round;stroke-miterlimit:2;"
   version="1.1"
   viewBox="0 0 32 32"
   width="100%"
   xml:space="preserve"
   id="svg1"
   sodipodi:docname="9856297_music_headphone_earphone_audio_icon.svg"
   xmlns:inkscape="http://www.inkscape.org/namespaces/inkscape"
   xmlns:sodipodi="http://sodipodi.sourceforge.net/DTD/sodipodi-0.dtd"
   xmlns:xlink="http://www.w3.org/1999/xlink"
   xmlns="http://www.w3.org/2000/svg"
   xmlns:svg="http://www.w3.org/2000/svg"><defs
     id="defs1"><linearGradient
       id="linearGradient8"
       inkscape:collect="always"
       inkscape:swatch="gradient"><stop
         style="stop-color:#df9d9d;stop-opacity:1;"
         offset="0"
         id="stop9" /><stop
         style="stop-color:#000000;stop-opacity:0;"
         offset="1"
         id="stop10" /></linearGradient><linearGradient
       id="linearGradient1"
       inkscape:collect="always"><stop
         style="stop-color:#000000;stop-opacity:0;"
         offset="0"
         id="stop1" /><stop
         style="stop-color:#000000;stop-opacity:0;"
         offset="1"
         id="stop2" /></linearGradient><linearGradient
       inkscape:collect="always"
       xlink:href="#linearGradient1"
       id="linearGradient3"
       gradientUnits="userSpaceOnUse"
       x1="10.394259"
       y1="15.031785"
       x2="49.574246"
       y2="15.031785"
       gradientTransform="translate(-11.927666,-0.09376053)" /><linearGradient
       inkscape:collect="always"
       xlink:href="#linearGradient8"
       id="linearGradient11"
       gradientUnits="userSpaceOnUse"
       x1="4.2647669"
       y1="11.547662"
       x2="28.746129"
       y2="11.547662" /></defs><sodipodi:namedview
     id="namedview1"
     pagecolor="#ffffff"
     bordercolor="#999999"
     borderopacity="1"
     inkscape:showpageshadow="2"
     inkscape:pageopacity="0"
     inkscape:pagecheckerboard="0"
     inkscape:deskcolor="#d1d1d1"
     showgrid="false" /><path
     d="m 24.403439,13.983502 v 11.436713 c 0,0.573916 0.480217,1.039702 1.071911,1.039702 0,0 1.071911,0 2.143822,0 0.853242,0 1.67111,-0.328546 2.273523,-0.913897 0.603486,-0.584313 0.942211,-1.377606 0.942211,-2.205207 0,-1.812199 0,-4.426008 0,-6.238208 0,-0.827601 -0.338725,-1.620893 -0.942211,-2.205205 -0.602413,-0.585352 -1.420281,-0.913898 -2.273523,-0.913898 z m -17.1505732,0 H 3.5869307 c -1.5628462,0.212099 -2.76553021,1.513805 -2.76553021,3.088953 0,1.819477 0,4.448881 0,6.268358 0,1.722785 1.43957631,3.119104 3.21573271,3.119104 H 6.180955 c 0.5916948,0 1.0719108,-0.465786 1.0719108,-1.039702 z M 5.1090441,11.904099 h 2.1438217 v -0.0021 c 0,-2.2052061 0.903621,-4.3209975 2.5114869,-5.8795096 1.6067943,-1.559522 3.7881333,-2.43599 6.0616553,-2.43599 h 0.0043 c 2.273523,0 4.454862,0.876468 6.061656,2.4360199 1.607867,1.5585121 2.511487,3.6743035 2.511487,5.8795097 v 0.0021 h 2.143822 v -0.0021 c 0,-2.7572872 -1.128723,-5.4012472 -3.138556,-7.350687 -2.009833,-1.9494396 -4.735702,-3.044245 -7.578409,-3.044245 -0.001,0 -0.0032,0 -0.0043,0 -2.842707,0 -5.568577,1.0948054 -7.5784088,3.044245 -2.009833,1.9494398 -3.1385551,4.5933998 -3.1385551,7.350687 z"
     id="path1"
     style="stroke-width:1.05568" /><text
     xml:space="preserve"
     style="font-size:12px;font-family:FreeSerif;-inkscape-font-specification:FreeSerif;fill:url(#linearGradient3)"
     x="-1.6534073"
     y="18.850023"
     id="text2"><tspan
       sodipodi:role="line"
       id="tspan2"
       x="-1.6534073"
       y="18.850023"
       style="fill:url(#linearGradient3);fill-opacity:0" /></text><text
     xml:space="preserve"
     style="font-size:14.6667px;font-family:FreeSerif;-inkscape-font-specification:FreeSerif;fill:#050504;fill-opacity:0;stroke-width:12;stroke-dasharray:none;stroke:none;stroke-opacity:1"
     x="10.044766"
     y="16.40234"
     id="text3"><tspan
       sodipodi:role="line"
       id="tspan3"
       x="10.044766"
       y="16.40234"
       style="font-size:14.6667px;fill:#050504;fill-opacity:0;stroke-width:12;stroke-dasharray:none;stroke:none;stroke-opacity:1">M</tspan></text></svg>
