<?xml version="1.0" encoding="UTF-8" standalone="no"?>
<!-- Created with Inkscape (http://www.inkscape.org/) -->

<svg
   width="512"
   height="512"
   viewBox="0 0 512 512"
   version="1.1"
   id="svg1"
   xml:space="preserve"
   inkscape:version="1.3.2 (091e20ef0f, 2023-11-25, custom)"
   sodipodi:docname="drawing.svg"
   inkscape:export-filename="drawing.png"
   inkscape:export-xdpi="96"
   inkscape:export-ydpi="96"
   xmlns:inkscape="http://www.inkscape.org/namespaces/inkscape"
   xmlns:sodipodi="http://sodipodi.sourceforge.net/DTD/sodipodi-0.dtd"
   xmlns="http://www.w3.org/2000/svg"
   xmlns:svg="http://www.w3.org/2000/svg"><sodipodi:namedview
     id="namedview1"
     pagecolor="#ffffff"
     bordercolor="#999999"
     borderopacity="1"
     inkscape:showpageshadow="2"
     inkscape:pageopacity="0"
     inkscape:pagecheckerboard="0"
     inkscape:deskcolor="#d1d1d1"
     inkscape:document-units="px"
     inkscape:zoom="2.1738281"
     inkscape:cx="163.07637"
     inkscape:cy="333.28302"
     inkscape:window-width="2560"
     inkscape:window-height="1362"
     inkscape:window-x="0"
     inkscape:window-y="0"
     inkscape:window-maximized="1"
     inkscape:current-layer="layer3" /><defs
     id="defs1"><rect
       x="466.36736"
       y="483.43655"
       width="433.21075"
       height="476.06174"
       id="rect2" /></defs><g
     inkscape:label="Layer 1"
     inkscape:groupmode="layer"
     id="layer1"
     style="display:inline"><g
       style="clip-rule:evenodd;display:inline;opacity:1;fill-rule:evenodd;stroke-linejoin:round;stroke-miterlimit:2"
       id="g1"
       transform="matrix(17.699928,0,0,15.216258,-26.329331,-35.592067)"
       sodipodi:insensitive="true"><path
         d="m 24,16 v 11 c 0,0.552 0.448,1 1,1 0,0 1,0 2,0 0.796,0 1.559,-0.316 2.121,-0.879 C 29.684,26.559 30,25.796 30,25 30,23.257 30,20.743 30,19 30,18.204 29.684,17.441 29.121,16.879 28.559,16.316 27.796,16 27,16 Z M 8,16 H 4.58 C 3.122,16.204 2,17.456 2,18.971 2,20.721 2,23.25 2,25 c 0,1.657 1.343,3 3,3 h 2 c 0.552,0 1,-0.448 1,-1 z M 6,14 H 8 V 13.998 C 8,11.877 8.843,9.842 10.343,8.343 11.842,6.843 13.877,6 15.998,6 h 0.004 c 2.121,0 4.156,0.843 5.655,2.343 1.5,1.499 2.343,3.534 2.343,5.655 V 14 h 2 V 13.998 C 26,11.346 24.947,8.803 23.072,6.928 21.197,5.053 18.654,4 16.002,4 16.001,4 15.999,4 15.998,4 13.346,4 10.803,5.053 8.928,6.928 7.053,8.803 6,11.346 6,13.998 Z"
         id="path1" /></g></g><g
     inkscape:groupmode="layer"
     id="layer3"
     inkscape:label="Text"><text
       xml:space="preserve"
       style="font-style:normal;font-variant:normal;font-weight:bold;font-stretch:normal;font-size:192px;font-family:FreeSerif;-inkscape-font-specification:'FreeSerif Bold';white-space:pre;inline-size:201.433;display:inline"
       x="147.72215"
       y="241.42767"
       id="text3"
       transform="matrix(2.0978773,0,0,1.7813821,-225.0774,-35.214233)"
       inkscape:label="M"><tspan
         x="147.72215"
         y="241.42767"
         id="tspan2"><tspan
           style="font-family:'Source Han Sans';-inkscape-font-specification:'Source Han Sans Bold'"
           id="tspan1">M</tspan></tspan></text></g></svg>
